<?xml version="1.0" encoding="UTF-8"?>
<svg width="32px" height="32px" viewBox="0 0 32 32" version="1.1" xmlns="http://www.w3.org/2000/svg" xmlns:xlink="http://www.w3.org/1999/xlink">
    <!-- Generator: Sketch 60.1 (88133) - https://sketch.com -->
    <title>H5/img/equity12</title>
    <desc>Created with Sketch.</desc>
    <defs>
        <linearGradient x1="-3.25276238%" y1="23.816331%" x2="107.183674%" y2="107.591705%" id="linearGradient-1">
            <stop stop-color="#FFCE8C" offset="0%"></stop>
            <stop stop-color="#B85A0E" offset="100%"></stop>
        </linearGradient>
    </defs>
    <g id="UI" stroke="none" stroke-width="1" fill="none" fill-rule="evenodd">
        <g id="画板" transform="translate(-691.000000, -370.000000)">
            <g id="H5/img/equity12" transform="translate(691.000000, 370.000000)">
                <g id="编组-17" stroke-width="1" fill-rule="evenodd" transform="translate(2.400000, 2.400000)" fill="url(#linearGradient-1)">
                    <circle id="形状结合" fill-rule="nonzero" cx="13.6" cy="13.6" r="13.6"></circle>
                </g>
                <path d="M7.67292562,19.2098659 L7.84,19.208 C9.424,19.144 10.2613333,18.3386667 10.352,16.792 C10.2346667,15.4373333 9.496,14.7146667 8.136,14.624 C7.43733333,14.64 6.92266667,14.8853333 6.592,15.36 C6.60266667,13.8933333 7.016,13.1626667 7.832,13.168 C8.32266667,13.152 8.64,13.4266667 8.784,13.992 L8.784,13.992 L10.2,13.752 C9.912,12.6 9.112,12.024 7.8,12.024 C6.05066667,12.088 5.14933333,13.2826667 5.096,15.608 C5.05866667,18.0666667 5.97333333,19.2666667 7.84,19.208 L7.67292562,19.2098659 Z M7.84,18.04 C7.072,17.9973333 6.672,17.5946667 6.64,16.832 C6.67733333,16.1546667 7.056,15.8 7.776,15.768 C8.48,15.8 8.85066667,16.1733333 8.888,16.888 C8.84,17.6026667 8.49066667,17.9866667 7.84,18.04 Z M13.592,19.216 C15.3893333,19.248 16.2746667,18.0533333 16.248,15.632 C16.2213333,13.264 15.336,12.064 13.592,12.032 C11.8586667,12.1013333 10.9706667,13.304 10.928,15.64 C10.9493333,17.992 11.8373333,19.184 13.592,19.216 Z M13.6,18.048 C12.8906667,18.048 12.536,17.248 12.536,15.648 C12.5306667,13.9893333 12.8853333,13.1706667 13.6,13.192 C14.2933333,13.1493333 14.6346667,13.968 14.624,15.648 C14.6346667,17.264 14.2933333,18.064 13.6,18.048 Z M17.7904,18.8224 L17.7904,17.176 L19.552,17.176 L19.552,16.4176 L17.7904,16.4176 L17.7904,15.424 L19.8112,15.424 L19.8112,14.656 L16.8496,14.656 L16.8496,18.8224 L17.7904,18.8224 Z M21.232,18.8224 L21.232,17.3392 L21.9232,17.3392 C23.0272,17.3424 23.5776,16.8848 23.5744139,15.9664 C23.536,15.1152 23.0128,14.6784 22.0048,14.656 L22.0048,14.656 L20.2912,14.656 L20.2912,18.8224 L21.232,18.8224 Z M21.8464,16.624 L21.232,16.624 L21.232,15.3808 L21.8464,15.3808 C22.3296,15.3904 22.5776,15.5968 22.5904,16 C22.5808,16.4096 22.3328,16.6176 21.8464,16.624 L21.8464,16.624 Z M25.7872,18.8992 C26.8336,18.8768 27.376,18.4544 27.4144,17.632 C27.4016,17.168 27.176,16.816 26.7376,16.576 C26.472,16.4384 26.1456,16.3264 25.7584,16.24 C25.2496,16.1344 25.0096,15.9632 25.0384,15.7264 C25.064,15.4736 25.2576,15.3424 25.6192,15.3328 C26.0704,15.336 26.3248,15.5376 26.3824,15.9376 L26.3824,15.9376 L27.2992,15.7648 C27.1296,14.9712 26.5552,14.5824 25.576,14.5984 C24.6384,14.6432 24.1328,15.0176 24.0592,15.7216 C24.04,16.352 24.4096,16.7472 25.168,16.9072 C25.5072,16.984 25.7792,17.064 25.984,17.1472 C26.2816,17.2592 26.4256,17.4336 26.416,17.6704 C26.3936,17.9872 26.1744,18.152 25.7584,18.1648 C25.2176,18.1712 24.9072,17.8848 24.8272,17.3056 L24.8272,17.3056 L23.9104,17.488 C24.096,18.448 24.7216,18.9184 25.7872,18.8992 Z" id="60FPS" fill="#FFFFFF" fill-rule="nonzero" opacity="0.8"></path>
            </g>
        </g>
    </g>
</svg>