<?xml version="1.0" encoding="UTF-8"?>
<svg width="32px" height="32px" viewBox="0 0 32 32" version="1.1" xmlns="http://www.w3.org/2000/svg" xmlns:xlink="http://www.w3.org/1999/xlink">
    <!-- Generator: Sketch 60.1 (88133) - https://sketch.com -->
    <title>H5/img/equity4</title>
    <desc>Created with Sketch.</desc>
    <defs>
        <linearGradient x1="-3.25276238%" y1="23.816331%" x2="107.183674%" y2="107.591705%" id="linearGradient-1">
            <stop stop-color="#FFCE8C" offset="0%"></stop>
            <stop stop-color="#B85A0E" offset="100%"></stop>
        </linearGradient>
    </defs>
    <g id="UI" stroke="none" stroke-width="1" fill="none" fill-rule="evenodd">
        <g id="画板" transform="translate(-457.000000, -194.000000)">
            <g id="H5/img/equity4" transform="translate(457.000000, 194.000000)">
                <g id="编组-17" fill-rule="evenodd" transform="translate(2.400000, 2.400000)">
                    <circle id="形状结合" fill="url(#linearGradient-1)" fill-rule="nonzero" cx="13.6" cy="13.6" r="13.6"></circle>
                    <path d="M20.9692308,8 C21.5215155,8 21.9692308,8.44771525 21.9692308,9 L21.9692308,9 L21.9692308,18.2 C21.9692308,18.7522847 21.5215155,19.2 20.9692308,19.2 L20.9692308,19.2 L6.6,19.2 C6.04771525,19.2 5.6,18.7522847 5.6,18.2 L5.6,18.2 L5.6,9 C5.6,8.44771525 6.04771525,8 6.6,8 L6.6,8 Z M9.2503842,9.72307692 L7.32307692,9.72307692 L7.32307692,17.9076923 L9.2503842,17.9076923 C11.2505814,17.9076923 12.9230769,16.0719825 12.9230769,13.7991011 C12.9230769,11.593202 11.2505814,9.72307692 9.2503842,9.72307692 L9.2503842,9.72307692 Z M20.2461538,9.72307692 L18.3146661,9.72307692 C16.3137145,9.72307692 14.6461538,11.593202 14.6461538,13.7991011 C14.6461538,16.0719825 16.3137145,17.9076923 18.3146661,17.9076923 L18.3146661,17.9076923 L20.2461538,17.9076923 L20.2461538,9.72307692 Z" id="形状结合" fill="#FFFFFF" opacity="0.8"></path>
                </g>
                <path d="" id="路径-12" stroke="#979797"></path>
            </g>
        </g>
    </g>
</svg>