<?xml version="1.0" encoding="UTF-8"?>
<svg width="32px" height="32px" viewBox="0 0 32 32" version="1.1" xmlns="http://www.w3.org/2000/svg" xmlns:xlink="http://www.w3.org/1999/xlink">
    <!-- Generator: Sketch 60.1 (88133) - https://sketch.com -->
    <title>H5/img/equity8</title>
    <desc>Created with Sketch.</desc>
    <defs>
        <linearGradient x1="-3.25276238%" y1="23.816331%" x2="107.183674%" y2="107.591705%" id="linearGradient-1">
            <stop stop-color="#FFCE8C" offset="0%"></stop>
            <stop stop-color="#B85A0E" offset="100%"></stop>
        </linearGradient>
    </defs>
    <g id="UI" stroke="none" stroke-width="1" fill="none" fill-rule="evenodd">
        <g id="画板" transform="translate(-574.000000, -282.000000)">
            <g id="H5/img/equity8" transform="translate(574.000000, 282.000000)">
                <g id="编组-20" transform="translate(2.400000, 2.400000)">
                    <circle id="形状结合" fill="url(#linearGradient-1)" fill-rule="nonzero" cx="13.6" cy="13.6" r="13.6"></circle>
                    <path d="M8.59905983,16.3379333 C9.11660634,15.8201277 10.0430248,15.9070679 10.6679674,16.5322703 C11.2929099,17.1569612 11.3798495,18.0831301 10.8620473,18.6009358 C10.3442451,19.1184857 7.2,20 7.2,20 C7.2,20 8.08125761,16.855739 8.59905983,16.3379333 Z M11.8235744,10.1519742 C13.6829294,8.29261962 16.2924841,7.63861669 18.6847057,8.18818401 C18.8471012,8.2261003 18.9739023,8.35290135 19.0118186,8.51529682 C19.561386,10.907518 18.907383,13.5168494 17.0478053,15.3766493 C16.7854339,15.638674 16.5035293,15.8803809 16.2045265,16.0996822 C16.1201319,16.1618091 16.0613451,16.2506573 16.0361825,16.3524208 C15.7956911,17.323516 15.2882097,18.2594283 14.5115114,19.0361264 C14.1643528,19.3837829 13.7749704,19.6865361 13.3524764,19.937301 C12.9937433,20.149735 12.5706566,19.7856578 12.7151741,19.3946367 C12.9431956,18.7775981 13.0552023,18.1109026 13.0556476,17.4237208 C12.9973062,17.4332959 11.7764434,16.470084 11.2528526,15.9471483 C10.7299712,15.4235053 9.76670467,14.2026951 9.7762798,14.144131 C9.0890978,14.1445764 8.42240213,14.256583 7.80536348,14.4846044 C7.41434223,14.629122 7.05026493,14.2060353 7.26269903,13.8473023 C7.51346776,13.4248786 7.81622155,13.0355704 8.16387384,12.6884902 C8.94079477,11.9115694 9.87648456,11.4040881 10.8478027,11.1635967 C10.9495662,11.1384342 11.0384144,11.0798701 11.1005414,10.9952528 C11.3198427,10.6962501 11.5615496,10.4143455 11.8235744,10.1519742 Z M16.3313708,10.8686291 C15.706532,10.2437903 14.693468,10.2437903 14.0686291,10.8686292 C13.4437903,11.493468 13.4437903,12.506532 14.0686292,13.1313709 C14.693468,13.7562097 15.706532,13.7562097 16.3313709,13.1313708 C16.9562097,12.506532 16.9562097,11.493468 16.3313708,10.8686291 Z" id="形状结合" fill="#FFFFFF" fill-rule="nonzero" opacity="0.8"></path>
                </g>
            </g>
        </g>
    </g>
</svg>