<?xml version="1.0" encoding="UTF-8"?>
<svg width="32px" height="32px" viewBox="0 0 32 32" version="1.1" xmlns="http://www.w3.org/2000/svg" xmlns:xlink="http://www.w3.org/1999/xlink">
    <!-- Generator: Sketch 60.1 (88133) - https://sketch.com -->
    <title>H5/img/equity3</title>
    <desc>Created with Sketch.</desc>
    <defs>
        <linearGradient x1="-3.25276238%" y1="23.816331%" x2="107.183674%" y2="107.591705%" id="linearGradient-1">
            <stop stop-color="#FFCE8C" offset="0%"></stop>
            <stop stop-color="#B85A0E" offset="100%"></stop>
        </linearGradient>
    </defs>
    <g id="UI" stroke="none" stroke-width="1" fill="none" fill-rule="evenodd">
        <g id="画板" transform="translate(-691.000000, -106.000000)">
            <g id="H5/img/equity3" transform="translate(691.000000, 106.000000)">
                <g id="编组-17" stroke-width="1" fill-rule="evenodd" transform="translate(2.400000, 2.400000)" fill="url(#linearGradient-1)">
                    <circle id="形状结合" fill-rule="nonzero" cx="13.6" cy="13.6" r="13.6"></circle>
                </g>
                <path d="M10.296,20.7040307 C12.0133333,20.7093333 12.8666667,20.0186667 12.856,18.632 C12.7333333,17.752 12.192,17.216 11.232,17.024 C12.1226667,16.7893333 12.5706667,16.2453333 12.576,15.392 C12.48,14.3413333 11.672,13.7973333 10.152,13.76 L10.152,13.76 L6.92,13.76 L6.92,20.7040307 L10.296,20.7040307 Z M9.888,16.56 L8.496,16.56 L8.496,14.92 L9.888,14.92 C10.56,14.9306667 10.9066667,15.1866667 10.928,15.688 C10.896,16.2426667 10.5493333,16.5333333 9.888,16.56 L9.888,16.56 Z M10.04,19.552 L8.496,19.552 L8.496,17.72 L10.048,17.72 C10.7733333,17.7466667 11.16,18.0453333 11.208,18.616 C11.1973333,19.2293333 10.808,19.5413333 10.04,19.552 L10.04,19.552 Z M15.912,20.704 C18.4506667,20.7786667 19.68,19.592 19.6,17.144 C19.5626667,14.9146667 18.2986667,13.7866667 15.808,13.76 L15.808,13.76 L13.664,13.76 L13.664,20.704 L15.912,20.704 Z M15.784,19.4320281 L15.24,19.4320281 L15.24,15.04 L15.776,15.04 C17.1893333,15.0666667 17.9146667,15.776 17.952,17.168 C17.9573333,18.6826667 17.2346667,19.4373333 15.784,19.4320281 L15.784,19.4320281 Z" id="BD" fill="#FFFFFF" fill-rule="nonzero" opacity="0.8"></path>
                <path d="M22.1472,14.0224 L22.1472,13.1296 L22.6416,13.1296 L22.6416,12.4768 L22.1472,12.4768 L22.1472,9.8512 L21.2592,9.8512 L19.32,12.5488 L19.32,13.1296 L21.3312,13.1296 L21.3312,14.0224 L22.1472,14.0224 Z M21.3312,12.4768 L20.1744,12.4768 L21.192,11.0272 C21.2752,10.9056 21.328,10.808 21.3504,10.7344 L21.3504,10.7344 C21.3376,10.856 21.3312,11 21.3312,11.1664 L21.3312,11.1664 L21.3312,12.4768 Z M23.9856,14.008 L23.9856,13.2208 L24.4704,12.76 L25.248,14.008 L26.3376,14.008 L25.0656,12.1936 L26.2752,11.032 L25.128,11.032 L23.9856,12.1984 L23.9856,9.5968 L23.0736,9.5968 L23.0736,14.008 L23.9856,14.008 Z" id="4k" fill="#FFFFFF" fill-rule="nonzero" opacity="0.8"></path>
            </g>
        </g>
    </g>
</svg>