<?xml version="1.0" encoding="UTF-8"?>
<svg width="32px" height="32px" viewBox="0 0 32 32" version="1.1" xmlns="http://www.w3.org/2000/svg" xmlns:xlink="http://www.w3.org/1999/xlink">
    <!-- Generator: Sketch 60.1 (88133) - https://sketch.com -->
    <title>H5/img/equity2</title>
    <desc>Created with Sketch.</desc>
    <defs>
        <linearGradient x1="-3.25276238%" y1="23.816331%" x2="107.183674%" y2="107.591705%" id="linearGradient-1">
            <stop stop-color="#FFCE8C" offset="0%"></stop>
            <stop stop-color="#B85A0E" offset="100%"></stop>
        </linearGradient>
    </defs>
    <g id="UI" stroke="none" stroke-width="1" fill="none" fill-rule="evenodd">
        <g id="画板" transform="translate(-574.000000, -106.000000)">
            <g id="H5/img/equity2" transform="translate(574.000000, 106.000000)">
                <g id="编组-17" stroke-width="1" transform="translate(2.400000, 2.400000)" fill="url(#linearGradient-1)">
                    <circle id="形状结合" fill-rule="nonzero" cx="13.6" cy="13.6" r="13.6"></circle>
                </g>
                <path d="M9.59948566,13.3585084 L14.1714039,15.8988668 C14.8062682,16.2516253 15.2,16.9208299 15.2,17.6471158 L15.2,22.8324742 L15.2,22.8324742 L10.4,20.0611929 C9.90495828,19.7753804 9.6,19.2471772 9.6,18.6755523 L9.59948566,13.3585084 Z M22.3994857,13.3601084 L22.4,18.6755523 C22.4,19.2471772 22.0950417,19.7753804 21.6,20.0611929 L16.8,22.8324742 L16.7995808,17.6475546 C16.7995221,16.9210929 17.1933886,16.2517234 17.8284646,15.8989841 L22.3994857,13.3601084 L22.3994857,13.3601084 Z M16.8,8.97606774 L21.6,11.747349 C21.664793,11.7847573 21.7263298,11.8263179 21.7843527,11.8715846 L16.9710149,14.5452524 C16.3668348,14.8808567 15.6322002,14.8807422 15.0281248,14.5449494 L10.2169878,11.8705399 L10.2169878,11.8705399 C10.2746178,11.8256783 10.3357057,11.7844693 10.4,11.747349 L15.2,8.97606774 C15.6950417,8.69025527 16.3049583,8.69025527 16.8,8.97606774 Z" id="形状" fill="#FFFFFF" opacity="0.8"></path>
            </g>
        </g>
    </g>
</svg>