<?xml version="1.0" encoding="UTF-8"?>
<svg width="20px" height="20px" viewBox="0 0 20 20" version="1.1" xmlns="http://www.w3.org/2000/svg" xmlns:xlink="http://www.w3.org/1999/xlink">
    <!-- Generator: Sketch 60.1 (88133) - https://sketch.com -->
    <title>icon_crown_gray</title>
    <desc>Created with Sketch.</desc>
    <defs>
        <path d="M10.5141524,4.56246329 C10.6891487,4.65581656 10.8324321,4.79909997 10.9257854,4.97409633 L13.6946527,10.1645059 C14.2145449,11.1390755 15.4260456,11.5076643 16.4006152,10.987772 C16.445086,10.9640487 16.4886441,10.9386527 16.5311963,10.9116385 L17.3647425,10.3824631 C17.8310036,10.086458 18.4489424,10.2244778 18.7449475,10.6907389 C18.8880213,10.9161057 18.9350489,11.189322 18.8755595,11.4495552 L17.9273581,15.5974089 C17.6155262,16.9615 16.4020808,17.9288538 15.0028011,17.9288538 L5.08415546,17.9288538 C3.68487576,17.9288538 2.47143029,16.9615 2.1595984,15.5974089 L1.21139704,11.4495552 C1.08831944,10.9111592 1.42500159,10.3749288 1.96339768,10.2518512 C2.22363088,10.1923617 2.49684723,10.2393893 2.72221406,10.3824631 L3.55576023,10.9116385 C4.48828244,11.5036488 5.72416016,11.2276093 6.31617039,10.295087 C6.34318455,10.2525349 6.3685805,10.2089767 6.39230383,10.1645059 L9.16117112,4.97409633 C9.42111725,4.48681155 10.0268676,4.30251716 10.5141524,4.56246329 Z M19.25,6.97233202 C19.7122383,6.97233202 20.0869565,7.34395337 20.0869565,7.80237154 C20.0869565,8.26078971 19.7122383,8.63241107 19.25,8.63241107 C18.7877617,8.63241107 18.4130435,8.26078971 18.4130435,7.80237154 C18.4130435,7.34395337 18.7877617,6.97233202 19.25,6.97233202 Z M0.836956522,6.97233202 C1.29919484,6.97233202 1.67391304,7.34395337 1.67391304,7.80237154 C1.67391304,8.26078971 1.29919484,8.63241107 0.836956522,8.63241107 C0.374718199,8.63241107 0,8.26078971 0,7.80237154 C0,7.34395337 0.374718199,6.97233202 0.836956522,6.97233202 Z M10.0434783,0 C10.7830596,0 11.3826087,0.594594166 11.3826087,1.32806324 C11.3826087,2.06153232 10.7830596,2.65612648 10.0434783,2.65612648 C9.30389694,2.65612648 8.70434783,2.06153232 8.70434783,1.32806324 C8.70434783,0.594594166 9.30389694,0 10.0434783,0 Z" id="path-1"></path>
    </defs>
    <g id="UI" stroke="none" stroke-width="1" fill="none" fill-rule="evenodd">
        <g id="画板" transform="translate(-973.000000, -165.000000)">
            <g id="H5/img/账户信息/img_crown_gray" transform="translate(973.000000, 165.000000)">
                <g id="icon_crown_gray" transform="translate(10.500000, 9.586957) rotate(-315.000000) translate(-10.500000, -9.586957) ">
                    <g id="矩形-2" transform="translate(0.244544, 0.029239)">
                        <g id="矩形" transform="translate(0.000000, -0.000000)">
                            <mask id="mask-2" fill="white">
                                <use xlink:href="#path-1"></use>
                            </mask>
                            <use id="蒙版" fill="#D8D8D8" xlink:href="#path-1"></use>
                            <path d="M7.25362319,2.21343874 C9.26961465,2.21343874 7.93047172,1.77797411 8.92753623,2.76679842 C11.7173913,5.53359684 14.7101236,12.5595927 8.92753623,13.8339921 C3.9057971,14.9407115 1.67391304,17.1541502 4.46376812,18.2608696 C7.25362319,19.3675889 -7.37338389,22.5770751 -4.68539528,19.256917 C-1.99740667,15.9367589 -7.37338389,8.63241107 0.0185847913,8.63241107 C7.41055347,8.63241107 3.72179558,2.21343874 7.25362319,2.21343874 Z" id="路径-4" fill="#BFBFBF" style="mix-blend-mode: soft-light;" mask="url(#mask-2)"></path>
                        </g>
                    </g>
                </g>
            </g>
        </g>
    </g>
</svg>