<?xml version="1.0" encoding="UTF-8"?>
<svg width="64px" height="64px" viewBox="0 0 64 64" version="1.1" xmlns="http://www.w3.org/2000/svg" xmlns:xlink="http://www.w3.org/1999/xlink">
    <!-- Generator: Sketch 60.1 (88133) - https://sketch.com -->
    <title>img_paywaiting</title>
    <desc>Created with Sketch.</desc>
    <defs>
        <linearGradient x1="10.0012585%" y1="23.816331%" x2="92.9512928%" y2="107.591705%" id="linearGradient-1">
            <stop stop-color="#FFCE8C" offset="0%"></stop>
            <stop stop-color="#B85A0E" offset="100%"></stop>
        </linearGradient>
        <path d="M44.4428014,49.8042373 L42.4414232,49.8042373 L42.4414232,44.0877143 C42.4414232,36.6465375 38.0869944,30.2127564 31.7629136,27.1432364 C38.087054,24.0736573 42.4414232,17.6398762 42.4414232,10.1987585 L42.4414232,4.48223547 L44.4428014,4.48223547 C45.4745607,4.48223547 46.3108935,3.63667001 46.3108935,2.59362691 C46.3108935,1.55058382 45.4745607,0.70501836 44.4428014,0.70501836 L2.35285189,0.70501836 C1.32115216,0.70501836 0.484700122,1.55058382 0.484700122,2.59362691 C0.484700122,3.63667001 1.32115216,4.48223547 2.35285189,4.48223547 L4.32202674,4.48223547 L4.32202674,10.1987585 C4.32202674,17.6398762 8.67639593,24.0736573 15.0004767,27.1432364 C8.67633629,30.2127564 4.3219671,36.6464785 4.3219671,44.0876552 L4.3219671,49.8041782 L2.35279225,49.8041782 C1.32109253,49.8041782 0.484700122,50.6496847 0.484700122,51.6927868 C0.484700122,52.7358889 1.32109253,53.5813953 2.35279225,53.5813953 L44.4427417,53.5813953 C45.4745011,53.5813953 46.3108935,52.7358889 46.3108935,51.6927868 C46.3108935,50.6496847 45.4745607,49.8042373 44.4428014,49.8042373 Z" id="path-2"></path>
        <linearGradient x1="31.3530692%" y1="21.1701518%" x2="50%" y2="45.5340579%" id="linearGradient-4">
            <stop stop-color="#FFFFFF" stop-opacity="0" offset="0%"></stop>
            <stop stop-color="#EDB685" offset="100%"></stop>
        </linearGradient>
    </defs>
    <g id="UI" stroke="none" stroke-width="1" fill="none" fill-rule="evenodd">
        <g id="画板" transform="translate(-855.000000, -99.000000)">
            <g id="H5/img/img_waiting" transform="translate(855.000000, 99.000000)">
                <g id="编组" transform="translate(9.000000, 5.000000)">
                    <g id="img_waiting">
                        <mask id="mask-3" fill="white">
                            <use xlink:href="#path-2"></use>
                        </mask>
                        <use id="形状" fill="url(#linearGradient-1)" xlink:href="#path-2"></use>
                        <path d="M28.6256095,-14.8092472 C34.5162052,-14.8092472 38.3287097,-16.232659 41.2420673,-13.3273017 C49.3938421,-5.19791218 53.6535892,8.90929435 36.6168911,9.51774786 C11.9412485,10.3990208 16.3476132,22.7368421 20.753978,36.8372093 C31.3033015,70.5950446 -8.16430184,60.1588969 -2.15911873,52.7001224 C5.6950089,42.944855 -16.713176,-1.05752754 4.88567499,-1.05752754 C26.4845259,-1.05752754 18.3058393,-14.8092472 28.6256095,-14.8092472 Z" id="路径-4" fill="url(#linearGradient-4)" opacity="0.425827753" style="mix-blend-mode: soft-light;" mask="url(#mask-3)"></path>
                    </g>
                    <path d="M16.1052632,20.4344344 C16.1052632,19.6861 15.5592619,19.0794374 14.885755,19.0794374 C12.1561674,19.0794374 10.0180018,16.7036768 10.0180018,13.6708288 C10.0180018,12.9224944 9.47200055,12.3157895 8.79849364,12.3157895 C8.12498672,12.3157895 7.57894737,12.9224521 7.57894737,13.6708288 C7.57894737,18.2233158 10.78848,21.7894737 14.885755,21.7894737 C15.5592619,21.7894737 16.1052632,21.1827687 16.1052632,20.4344344 Z" id="路径" fill="#FFFFFF"></path>
                    <circle id="椭圆形" fill="#FFFFFF" cx="9" cy="9" r="1.42105263"></circle>
                </g>
            </g>
        </g>
    </g>
</svg>