<?xml version="1.0" encoding="UTF-8"?>
<svg width="54px" height="18px" viewBox="0 0 54 18" version="1.1" xmlns="http://www.w3.org/2000/svg" xmlns:xlink="http://www.w3.org/1999/xlink">
    <!-- Generator: Sketch 60.1 (88133) - https://sketch.com -->
    <title>nav_code</title>
    <desc>Created with Sketch.</desc>
    <defs>
        <linearGradient x1="-14.289927%" y1="41.9347829%" x2="193.482588%" y2="61.3923831%" id="linearGradient-1">
            <stop stop-color="#FBCA9C" offset="0%"></stop>
            <stop stop-color="#AB5B19" offset="100%"></stop>
        </linearGradient>
        <path d="M293.147453,91 C294.30563,89.9 295.270777,88.85 296.042895,87.85 C296.718499,88.75 297.587131,89.725 298.648794,90.775 C298.793566,90.375 299.107239,89.775 299.589812,88.975 C298.431635,88.075 297.563003,87.125 296.983914,86.125 C297.900804,84.375 298.455764,81.7 298.648794,78.1 L298.648794,78.1 L299.44504,78.1 L299.44504,76.375 L295.753351,76.375 C296.13941,75.425 296.428954,74.425 296.621984,73.375 L296.621984,73.375 L294.957105,73.075 C294.378016,75.725 293.509383,78.225 292.351206,80.575 L292.351206,80.575 L292.351206,74.65 L289.962466,74.65 C290.010724,74.5 290.08311,74.3 290.179625,74.05 C290.276139,73.65 290.348525,73.35 290.396783,73.15 L290.396783,73.15 L288.587131,73 C288.490617,73.55 288.369973,74.1 288.225201,74.65 L288.225201,74.65 L286.487936,74.65 L286.487936,81.4 L292.351206,81.4 L292.351206,81.25 C292.640751,81.65 292.906166,81.975 293.147453,82.225 C293.243968,82.075 293.364611,81.875 293.509383,81.625 C293.654155,81.325 293.75067,81.125 293.798928,81.025 C294.088472,83.225 294.522788,84.925 295.101877,86.125 C294.426273,87.275 293.412869,88.375 292.061662,89.425 C292.206434,89.125 292.27882,88.825 292.27882,88.525 C292.375335,87.125 292.423592,86.1 292.423592,85.45 L292.423592,85.45 L288.587131,85.45 C288.635389,85.05 288.659517,84.65 288.659517,84.25 L288.659517,84.25 L293.002681,84.25 L293.002681,82.9 L290.469169,82.9 C290.420912,82.45 290.324397,82 290.179625,81.55 L290.179625,81.55 L288.442359,81.775 C288.490617,81.875 288.563003,82.075 288.659517,82.375 C288.707775,82.625 288.756032,82.8 288.80429,82.9 L288.80429,82.9 L285.836461,82.9 L285.836461,84.25 L286.994638,84.25 C286.994638,85 286.970509,85.525 286.922252,85.825 C286.873995,87.325 286.22252,88.65 284.967828,89.8 C285.595174,90.3 286.053619,90.675 286.343164,90.925 C287.646113,89.525 288.345845,88.15 288.442359,86.8 L288.442359,86.8 L290.758713,86.8 L290.686327,88.225 C290.686327,88.775 290.348525,89.05 289.672922,89.05 L289.672922,89.05 L289.093834,89.05 C288.80429,89 288.587131,88.975 288.442359,88.975 C288.587131,89.525 288.683646,90.05 288.731903,90.55 L288.731903,90.55 L290.252011,90.55 C291.217158,90.5 291.820375,90.15 292.061662,89.5 C292.206434,89.65 292.423592,89.95 292.713137,90.4 C292.906166,90.7 293.050938,90.9 293.147453,91 Z M284.75067,77.05 L286.126005,75.625 C285.932976,75.475 285.691689,75.225 285.402145,74.875 C284.678284,74.225 284.123324,73.725 283.737265,73.375 L283.737265,73.375 L282.434316,74.575 C282.579088,74.725 282.796247,74.95 283.085791,75.25 C283.857909,76 284.412869,76.6 284.75067,77.05 L284.75067,77.05 Z M290.831099,77.35 L288.008043,77.35 L288.008043,76 L290.831099,76 L290.831099,77.35 Z M295.954109,83.9330078 C295.518662,82.6849609 295.210456,80.865625 295.029491,78.475 L295.029491,78.475 L295.174263,78.1 L297.128686,78.1 C296.983914,80.8 296.621984,82.825 296.042895,84.175 L296.042059,84.1743333 L295.954109,83.9330078 Z M284.38874,81.925 L285.764075,80.575 C284.895442,79.675 284.075067,78.875 283.302949,78.175 L283.302949,78.175 L282,79.45 C282.868633,80.25 283.664879,81.075 284.38874,81.925 L284.38874,81.925 Z M290.831099,80.05 L288.008043,80.05 L288.008043,78.7 L290.831099,78.7 L290.831099,80.05 Z M283.954424,90.775 C284.630027,87.875 285.160858,85.675 285.546917,84.175 C285.402145,84.125 285.112601,84.025 284.678284,83.875 C284.292225,83.775 284.002681,83.7 283.809651,83.65 C283.134048,86.75 282.579088,88.95 282.144772,90.25 L282.144772,90.25 L283.954424,90.775 Z M303.788204,77.275 L305.163539,75.775 C304.246649,74.925 303.257373,74.1 302.19571,73.3 L302.19571,73.3 L300.965147,74.65 C301.689008,75.3 302.630027,76.175 303.788204,77.275 L303.788204,77.275 Z M308.276139,90.925 L308.276139,89.875 L315.008043,89.875 L315.008043,90.925 L316.89008,90.925 L316.89008,82.975 L312.619303,82.975 L312.619303,80.275 L317.975871,80.275 L317.975871,78.475 L312.619303,78.475 L312.619303,75.775 C314.163539,75.725 315.707775,75.625 317.252011,75.475 L317.252011,75.475 L317.034853,73.75 C313.801609,74 310.10992,74.175 305.959786,74.275 L305.959786,74.275 L306.176944,76.075 C307.672922,75.975 309.144772,75.9 310.592493,75.85 L310.592493,75.85 L310.592493,78.475 L305.380697,78.475 L305.380697,80.275 L310.592493,80.275 L310.592493,82.975 L306.321716,82.975 L306.321716,90.925 L308.276139,90.925 Z M303.281501,82.15 L304.729223,80.65 C303.812332,79.75 302.798928,78.9 301.689008,78.1 L301.689008,78.1 L300.386059,79.45 C301.302949,80.25 302.268097,81.15 303.281501,82.15 L303.281501,82.15 Z M302.847185,90.85 C303.088472,90.1 303.402145,89.05 303.788204,87.7 C304.270777,86.05 304.608579,84.875 304.801609,84.175 C304.126005,83.925 303.49866,83.7 302.919571,83.5 C302.436997,85.45 301.761394,87.675 300.892761,90.175 L300.892761,90.175 L302.847185,90.85 Z M315.008043,88.3 L308.276139,88.3 L308.276139,84.7 L315.008043,84.7 L315.008043,88.3 Z M332.742627,90.7 C334.72118,90.75 335.710456,89.825 335.710456,87.925 C335.806971,86.675 335.903485,84.425 336,81.175 L336,81.175 L334.262735,81.175 L334.986595,73.975 L326.879357,73.975 L326.879357,75.775 L332.959786,75.775 L332.380697,81.175 L329.050938,81.175 L329.485255,76.6 L327.603217,76.6 L327.096515,82.975 L334.117962,82.975 C334.069705,84.725 333.997319,86.275 333.900804,87.625 C333.900804,88.475 333.418231,88.875 332.453083,88.825 L332.453083,88.825 L329.847185,88.825 C329.895442,88.925 329.9437,89.1 329.991957,89.35 C330.088472,89.95 330.160858,90.4 330.209115,90.7 L330.209115,90.7 L332.742627,90.7 Z M322.174263,90.4 L322.174263,88.9 L324.128686,88.9 L324.128686,90.1 L325.648794,90.1 L325.648794,79.975 L322.319035,79.975 C322.753351,79.125 323.187668,77.85 323.621984,76.15 L323.621984,76.15 L326.08311,76.15 L326.08311,74.425 L319.495979,74.425 L319.495979,76.15 L321.739946,76.15 C321.30563,78.3 320.38874,80.375 318.989276,82.375 C319.182306,83.175 319.351206,83.95 319.495979,84.7 C319.882038,84.15 320.243968,83.65 320.581769,83.2 L320.581769,83.2 L320.581769,90.4 L322.174263,90.4 Z M324.128686,87.475 L322.174263,87.475 L322.174263,81.55 L324.128686,81.55 L324.128686,87.475 Z M333.032172,86.875 L333.032172,85.075 L326.372654,85.075 L326.372654,86.875 L333.032172,86.875 Z" id="path-2"></path>
    </defs>
    <g id="UI" stroke="none" stroke-width="1" fill="none" fill-rule="evenodd">
        <g id="画板" transform="translate(-282.000000, -73.000000)" fill-rule="nonzero">
            <g id="nav_code">
                <use fill="#E68B31" xlink:href="#path-2"></use>
                <use fill="url(#linearGradient-1)" xlink:href="#path-2"></use>
            </g>
        </g>
    </g>
</svg>