<?xml version="1.0" encoding="UTF-8"?>
<svg width="37px" height="18px" viewBox="0 0 37 18" version="1.1" xmlns="http://www.w3.org/2000/svg" xmlns:xlink="http://www.w3.org/1999/xlink">
    <!-- Generator: Sketch 60.1 (88133) - https://sketch.com -->
    <title>nav_pay</title>
    <desc>Created with Sketch.</desc>
    <defs>
        <linearGradient x1="-14.289927%" y1="32.8209109%" x2="193.482588%" y2="74.2660256%" id="linearGradient-1">
            <stop stop-color="#FBCA9C" offset="0%"></stop>
            <stop stop-color="#AB5B19" offset="100%"></stop>
        </linearGradient>
        <path d="M365.973684,91 C369.319163,90.2033195 372.01552,89.3070539 374.062753,88.3112033 C375.610661,89.1576763 378.232119,89.9543568 381.927126,90.7012448 C382.226721,90.1037344 382.451417,89.7302905 382.601215,89.5809129 C382.751012,89.2323651 382.875843,88.9834025 382.975709,88.8340249 C379.879892,88.4854772 377.508097,87.8879668 375.860324,87.0414938 C377.657895,85.746888 379.15587,83.9543568 380.354251,81.6639004 L380.354251,81.6639004 L380.354251,79.7966805 L375.111336,79.7966805 L375.111336,77.2572614 L382.676113,77.2572614 L382.676113,75.4647303 L375.111336,75.4647303 L375.111336,73 L373.01417,73 L373.01417,75.4647303 L365.224696,75.4647303 L365.224696,77.2572614 L373.01417,77.2572614 L373.01417,79.7966805 L366.572874,79.7966805 L366.572874,81.5892116 L368.07085,81.5892116 C369.169366,83.9792531 370.54251,85.7966805 372.190283,87.0414938 C370.34278,87.9377593 367.946019,88.6099585 365,89.0580913 C365.39946,89.8049793 365.724022,90.4522822 365.973684,91 Z M374.062753,85.9958506 C372.514845,85 371.216599,83.5311203 370.168016,81.5892116 L370.168016,81.5892116 L378.107287,81.5892116 C377.008772,83.5311203 375.660594,85 374.062753,85.9958506 Z M388.44332,90.9253112 L388.44332,77.7053942 C389.092443,76.3609959 389.6417,74.9917012 390.091093,73.5975104 L390.091093,73.5975104 L387.993927,73.0746888 C387.095142,76.0124481 385.77193,78.7510373 384.024291,81.2904564 C384.224022,82.1369295 384.398785,83.0082988 384.548583,83.9045643 C385.197706,83.1078838 385.821862,82.2365145 386.421053,81.2904564 L386.421053,81.2904564 L386.421053,90.9253112 L388.44332,90.9253112 Z M393.836032,90.7012448 C395.334008,90.7012448 396.357625,90.6763485 396.906883,90.626556 C398.754386,90.6763485 399.653171,89.780083 399.603239,87.9377593 L399.603239,87.9377593 L399.603239,78.9751037 L402,78.9751037 L402,77.033195 L399.603239,77.033195 L399.603239,73.2240664 L397.506073,73.2240664 L397.506073,77.033195 L389.791498,77.033195 L389.791498,78.9751037 L397.506073,78.9751037 L397.506073,87.4149378 C397.556005,88.3609959 397.05668,88.8091286 396.008097,88.7593361 L396.008097,88.7593361 L393.461538,88.7593361 C393.611336,89.406639 393.736167,90.0539419 393.836032,90.7012448 Z M393.536437,85.9211618 L395.259109,84.6514523 C394.210526,83.2572614 393.062078,81.8879668 391.813765,80.5435685 L391.813765,80.5435685 L390.315789,81.5892116 C391.414305,82.93361 392.487854,84.3775934 393.536437,85.9211618 L393.536437,85.9211618 Z" id="path-2"></path>
    </defs>
    <g id="UI" stroke="none" stroke-width="1" fill="none" fill-rule="evenodd">
        <g id="画板" transform="translate(-365.000000, -73.000000)" fill-rule="nonzero">
            <g id="nav_pay">
                <use fill="#E68B31" xlink:href="#path-2"></use>
                <use fill="url(#linearGradient-1)" xlink:href="#path-2"></use>
            </g>
        </g>
    </g>
</svg>