<?xml version="1.0" encoding="UTF-8"?>
<svg width="76px" height="18px" viewBox="0 0 76 18" version="1.1" xmlns="http://www.w3.org/2000/svg" xmlns:xlink="http://www.w3.org/1999/xlink">
    <!-- Generator: Sketch 63 (92445) - https://sketch.com -->
    <title>服务协议</title>
    <desc>Created with Sketch.</desc>
    <defs>
        <linearGradient x1="-14.289927%" y1="45.9282941%" x2="193.482588%" y2="55.7514178%" id="linearGradient-1">
            <stop stop-color="#FBCA9C" offset="0%"></stop>
            <stop stop-color="#AB5B19" offset="100%"></stop>
        </linearGradient>
        <path d="M211.580645,44 C212.483871,42.3246377 212.985663,40.3782609 213.086022,38.1608696 L213.086022,38.1608696 L215.11828,38.1608696 L215.11828,41.0434783 C215.168459,41.5855072 214.892473,41.8318841 214.290323,41.7826087 L214.290323,41.7826087 L213.010753,41.7826087 C213.010753,41.8318841 213.035842,42.0043478 213.086022,42.3 C213.18638,42.8913043 213.261649,43.3594203 213.311828,43.7043478 C213.562724,43.7043478 213.939068,43.6797101 214.44086,43.6304348 L214.44086,43.6304348 L215.268817,43.6304348 C216.422939,43.4826087 217,42.8173913 217,41.6347826 L217,41.6347826 L217,27 L211.129032,27 L211.129032,35.1304348 C211.129032,37.2985507 211.053763,38.8507246 210.903226,39.7869565 C210.802867,40.673913 210.501792,41.5362319 210,42.373913 C210.112903,42.4847826 210.282258,42.651087 210.508065,42.8728261 L210.752688,43.1130435 C211.103943,43.5072464 211.379928,43.8028986 211.580645,44 Z M221,44 L221,42.5833333 L221.740741,43.7763158 C222.876543,43.0307018 223.814815,42.3347953 224.555556,41.6885965 C225.691358,42.5336257 226.82716,43.254386 227.962963,43.8508772 C228.259259,43.254386 228.604938,42.6330409 229,41.9868421 C227.765432,41.5394737 226.728395,40.9429825 225.888889,40.1973684 C226.777778,38.9546784 227.493827,37.4137427 228.037037,35.5745614 L228.037037,35.5745614 L228.037037,33.4868421 L221,33.4868421 L221,28.8640351 L225.814815,28.8640351 L225.814815,28.8640351 L225.814815,29.7587719 C225.814815,30.4546784 225.345679,30.7777778 224.407407,30.7280702 C223.666667,30.7280702 222.975309,30.7032164 222.333333,30.6535088 C222.382716,30.8026316 222.407407,30.9766082 222.407407,31.1754386 C222.555556,31.7222222 222.654321,32.1447368 222.703704,32.4429825 L222.703704,32.4429825 L225.296296,32.4429825 C226.925926,32.4429825 227.765432,31.622807 227.814815,29.9824561 C227.864198,29.6842105 227.888889,29.1871345 227.888889,28.4912281 C227.938272,27.8450292 227.962963,27.3479532 227.962963,27 L227.962963,27 L219,27 L219,44 L221,44 Z M215,32 L213,32 L213,29 L215,29 L215,32 Z M215,37 L213,37 L213,34 L215,34 L215,37 Z M220,42 L220,35 L221.333333,35 L220.2,35.8045977 C220.777778,37.7356322 221.377778,39.210728 222,40.2298851 C221.466667,40.8735632 220.8,41.4636015 220,42 L220,42 Z M223.568182,39 C222.977273,37.8985507 222.454545,36.5652174 222,35 L222,35 L225,35 C224.545455,36.7391304 224.068182,38.0724638 223.568182,39 Z M229.808163,35 C233.432653,34.5419847 236.24898,33.9465649 238.257143,33.2137405 C240.069388,33.8549618 242.714286,34.3816794 246.191837,34.7938931 C246.191837,34.7480916 246.216327,34.7022901 246.265306,34.6564885 C246.559184,33.8320611 246.804082,33.259542 247,32.9389313 C244.55102,32.7099237 242.518367,32.4122137 240.902041,32.0458015 C242.273469,31.2671756 243.620408,30.3053435 244.942857,29.1603053 L244.942857,29.1603053 L244.942857,27.3740458 L236.053061,27.3740458 C236.102041,27.2824427 236.2,27.1679389 236.346939,27.0305344 C236.640816,26.6641221 236.861224,26.4122137 237.008163,26.2748092 L237.008163,26.2748092 L234.583673,26 C233.261224,27.5114504 231.497959,28.9312977 229.293878,30.259542 L229.293878,30.259542 L229.661224,30.6030534 C230.2,31.1068702 230.591837,31.4961832 230.836735,31.7709924 C230.983673,31.6335878 231.204082,31.4732824 231.497959,31.2900763 C232.281633,30.6946565 232.820408,30.259542 233.114286,29.9847328 C233.995918,30.8091603 234.902041,31.4961832 235.832653,32.0458015 C234.265306,32.4580153 231.987755,32.8473282 229,33.2137405 C229.097959,33.4885496 229.293878,33.9236641 229.587755,34.519084 C229.685714,34.7480916 229.759184,34.9083969 229.808163,35 Z M238.878788,32 C237.37037,31.25 236.077441,30.25 235,29 L235,29 L243,29 C241.383838,30.5 240.010101,31.5 238.878788,32 Z M231.253456,44 C235.480799,42.6829268 237.815668,40.8292683 238.258065,38.4390244 L238.258065,38.4390244 L243.640553,38.4390244 C243.640553,39.0243902 243.591398,39.6097561 243.493088,40.195122 C243.493088,41.2195122 242.952381,41.7073171 241.870968,41.6585366 C240.543779,41.6585366 239.437788,41.6341463 238.552995,41.5853659 C238.798771,42.5121951 238.921659,43.1707317 238.921659,43.5609756 L238.921659,43.5609756 L242.165899,43.5609756 C244.574501,43.6097561 245.778802,42.5365854 245.778802,40.3414634 C245.877112,39.2195122 245.950845,37.9756098 246,36.6097561 L246,36.6097561 L238.626728,36.6097561 L238.774194,35 L236.488479,35 C236.488479,35.5853659 236.439324,36.1219512 236.341014,36.6097561 L236.341014,36.6097561 L231.105991,36.6097561 L231.105991,38.4390244 L235.898618,38.4390244 C235.407066,40.097561 233.44086,41.2682927 230,41.9512195 C230.09831,42.1463415 230.344086,42.5365854 230.737327,43.1219512 C230.983103,43.5121951 231.155146,43.804878 231.253456,44 Z M254.580645,44 C257.842294,41.8 259.498208,38.25 259.548387,33.35 L259.548387,33.35 L259.623656,31.4 L262.258065,31.4 C262.207885,32.65 262.157706,34.45 262.107527,36.8 C262.007168,38.3 261.956989,39.4 261.956989,40.1 C261.90681,41.1 261.455197,41.575 260.602151,41.525 C259.598566,41.525 258.845878,41.5 258.344086,41.45 C258.544803,41.95 258.695341,42.65 258.795699,43.55 C260.200717,43.55 261.129032,43.525 261.580645,43.475 C263.286738,43.475 264.139785,42.55 264.139785,40.7 C264.240143,39.1 264.290323,37.6 264.290323,36.2 C264.741935,36.9 265.193548,37.675 265.645161,38.525 L265.645161,38.525 L267,36.575 C266.899642,36.375 266.724014,36.1 266.473118,35.75 C265.569892,34.4 264.892473,33.425 264.44086,32.825 C264.44086,32.425 264.46595,31.8 264.516129,30.95 L264.516129,30.95 L264.516129,29.375 L259.698925,29.375 C259.698925,28.975 259.724014,28.4 259.774194,27.65 L259.774194,27.65 L259.774194,26 L257.591398,26 L257.516129,29.375 L254.129032,29.375 L254.129032,31.4 L257.44086,31.4 L257.365591,33.2 C257.46595,37.3 256.010753,40.375 253,42.425 C253.551971,42.875 254.078853,43.4 254.580645,44 Z M252.550725,44 L252.550725,32.8823529 L254,32.8823529 L254,30.7647059 L252.550725,30.7647059 L252.550725,26 L250.521739,26 L250.521739,30.7647059 L249,30.7647059 L249,32.8823529 L250.521739,32.8823529 L250.521739,44 L252.550725,44 Z M254.92,38 C255.026667,37.6712329 255.213333,37.1780822 255.48,36.5205479 C256.173333,34.8767123 256.68,33.5890411 257,32.6575342 L257,32.6575342 L255.16,32 C254.36,34.1917808 253.64,35.8630137 253,37.0136986 L253,37.0136986 L254.92,38 Z M278.846154,31 L281,30.2537313 C280.897436,30.0547264 280.769231,29.7562189 280.615385,29.358209 C279.948718,27.8656716 279.435897,26.7462687 279.076923,26 L279.076923,26 L277,26.6716418 C277.615385,27.9154229 278.230769,29.358209 278.846154,31 L278.846154,31 Z M270.719298,31 L273,29.6440678 C272.824561,29.4180791 272.561404,29.079096 272.210526,28.6271186 C271.333333,27.440678 270.631579,26.5649718 270.105263,26 L270.105263,26 L268,27.1864407 C269.111111,28.6553672 270.017544,29.9265537 270.719298,31 L270.719298,31 Z M274.349727,44 C276.622951,42.6909091 278.375228,41.4545455 279.606557,40.2909091 C280.932605,41.5515152 282.613843,42.7393939 284.650273,43.8545455 C284.650273,43.8060606 284.697632,43.7575758 284.79235,43.7090909 C285.360656,42.7393939 285.763206,42.1090909 286,41.8181818 C284.010929,40.8969697 282.377049,39.830303 281.098361,38.6181818 C282.992714,36.3393939 284.318761,32.9454545 285.076503,28.4363636 L285.076503,28.4363636 L283.016393,28 C282.400729,32.0242424 281.264117,35.030303 279.606557,37.0181818 C278.043716,35.0787879 276.907104,32.1454545 276.196721,28.2181818 L276.196721,28.2181818 L274.20765,28.7272727 C274.965392,32.9939394 276.26776,36.2909091 278.114754,38.6181818 C276.693989,39.9272727 274.989071,41.0666667 273,42.0363636 C273.189435,42.2787879 273.449909,42.6424242 273.781421,43.1272727 C274.018215,43.5151515 274.20765,43.8060606 274.349727,44 Z M270.752809,42 C271.172285,41.6321839 271.539326,41.3103448 271.853933,41.0344828 C272.116105,40.8965517 272.456929,40.6436782 272.876404,40.2758621 C273.76779,39.6321839 274.475655,39.1264368 275,38.7586207 C274.737828,38.2068966 274.52809,37.5402299 274.370787,36.7586207 C274.05618,36.9885057 273.636704,37.3103448 273.11236,37.7241379 C272.692884,38 272.404494,38.2068966 272.247191,38.3448276 L272.247191,38.3448276 L272.247191,32 L268,32 L268,33.9310345 L270.044944,33.9310345 L270.044944,38.8965517 C270.044944,39.5862069 269.808989,40.1609195 269.337079,40.6206897 L269.337079,40.6206897 L270.752809,42 Z" id="path-2"></path>
    </defs>
    <g id="UI" stroke="none" stroke-width="1" fill="none" fill-rule="evenodd">
        <g id="H5单独购买成功备份-2" transform="translate(-210.000000, -26.000000)" fill-rule="nonzero">
            <g id="服务协议">
                <use fill="#E68B31" xlink:href="#path-2"></use>
                <use fill="url(#linearGradient-1)" xlink:href="#path-2"></use>
            </g>
        </g>
    </g>
</svg>