<?xml version="1.0" encoding="UTF-8"?>
<svg width="160px" height="24px" viewBox="0 0 160 24" version="1.1" xmlns="http://www.w3.org/2000/svg" xmlns:xlink="http://www.w3.org/1999/xlink">
    <!-- Generator: Sketch 60.1 (88133) - https://sketch.com -->
    <title>nav_aiqiyivip</title>
    <desc>Created with Sketch.</desc>
    <defs>
        <linearGradient x1="-14.289927%" y1="48.3667935%" x2="193.482588%" y2="52.3069576%" id="linearGradient-1">
            <stop stop-color="#FBCA9C" offset="0%"></stop>
            <stop stop-color="#AB5B19" offset="100%"></stop>
        </linearGradient>
        <path d="M97.1332745,89.1785714 C97.2815609,89.1785714 97.3171105,89.3158436 97.301673,89.4047744 C97.2551433,90.0283668 97.0821788,90.8753629 96.666129,91.4547052 C96.2525796,92.0388924 95.8565332,92.3208655 95.2784991,92.5787218 C93.589513,93.3319422 88.3523082,94 82.1572213,94 L82.1526553,94 C75.9593079,94 70.7138408,93.3319422 69.0333345,92.5787218 C68.4604099,92.3208655 68.0533834,92.0388924 67.6255924,91.4547052 C67.2184572,90.8753629 67.0416877,90.0283668 67.0017895,89.4047744 C66.9908094,89.3158436 67.0282071,89.1785714 67.173993,89.1785714 L69.6577897,89.182555 C69.810642,89.182555 69.823579,89.3006629 69.8635859,89.3843182 C69.9636031,89.6689829 70.1848368,90.1121297 70.4570575,90.3471612 C70.9215939,90.7459502 71.2338215,90.8653501 71.8692568,90.9567572 C74.4523097,91.3277688 78.5889992,91.5258714 82.1526553,91.5258714 C85.7118542,91.5258714 89.8510442,91.3277688 92.434097,90.9567572 C93.0714892,90.8653501 93.3837168,90.7459502 93.8507536,90.3471612 C94.118517,90.1121297 94.3488827,89.6689829 94.4488999,89.3843182 C94.4797748,89.3006629 94.4953209,89.182555 94.6592622,89.182555 L97.1332745,89.1785714 Z M75.2927988,75.3571429 C77.2587387,75.3571429 78.8570515,76.2923503 78.8570515,77.4348698 L78.8570515,86.4490315 C78.8570515,87.1188582 78.3148016,87.7154025 77.4788825,88.0895284 C77.5095901,88.1615251 77.6544785,88.1653821 77.9171156,88.1653821 L79.0175099,88.1653821 C79.0175099,88.1653821 79.2509531,88.1426688 79.2509531,88.4003357 L79.2509531,89.2751174 C79.2509531,89.3976832 79.1514776,89.5 79.0175099,89.5 L77.7232463,89.5 C77.071357,89.4873577 76.7127044,89.3862195 76.4220627,89.1410877 C76.2237604,88.9324901 76.1448287,88.7847468 76.1205004,88.4737252 C75.851592,88.5066166 75.5763042,88.5293298 75.2927988,88.5293298 C73.3267508,88.5293298 71.728438,87.5991578 71.728438,86.4490315 L71.728438,77.4348698 C71.728438,76.2923503 73.3267508,75.3571429 75.2927988,75.3571429 Z M111.757371,75.8928571 C111.856411,75.8928571 111.982325,75.9130187 112.06847,75.9509824 C112.249213,76.0307705 112.359848,76.2065403 112.392572,76.3976458 C112.416953,76.5861774 112.324414,76.8214666 112.154615,76.9352505 C112.024151,77.0301597 111.840808,77.0629758 111.684662,77.0934326 C111.364353,77.1541316 111.165622,77.1604589 110.832635,77.1909157 C110.876954,77.2211579 110.894399,77.2618027 110.91683,77.3071661 C110.96505,77.4046492 110.978594,77.5172534 110.949663,77.628678 C110.91683,77.838658 110.826133,78.0486381 110.738037,78.243497 C110.653951,78.4369618 110.561304,78.6355742 110.444276,78.8164916 L112.024151,78.8164916 C112.328857,78.8164916 112.564863,78.9177282 112.701287,79.1188071 C112.961565,79.4794623 113.041426,80.1498328 112.714724,81.1961941 C112.568764,81.5453744 112.328857,81.6213018 112.154615,81.6213018 C112.079414,81.6213018 111.991318,81.601033 111.902572,81.5757239 C111.891628,81.5693966 111.863346,81.5491279 111.845467,81.5453744 C111.820978,81.7681163 111.684662,82.0349346 111.179167,82.0792256 L105.961786,82.0792256 C105.888427,82.3120483 105.802932,82.5169879 105.710285,82.6977981 L109.972264,82.6977981 C110.365065,82.6977981 110.634554,82.8003216 110.77087,83.0155565 C110.925173,83.2584599 110.885947,83.6303755 110.634554,84.1287296 C110.252589,84.8726682 109.654555,85.5406793 108.869493,86.1200012 C109.94149,86.598301 111.245483,86.8917154 112.743655,86.9866247 C113.114027,87.0208349 113.3172,87.2473303 113.3172,87.6103448 C113.272773,87.9822605 113.05237,88.1847336 112.679398,88.1847336 C110.91683,88.0429595 109.213425,87.6103448 107.616212,86.8842085 C107.607219,86.880455 107.53646,86.9296791 107.517172,86.9347195 C107.254185,87.0841078 106.976352,87.2168735 106.694077,87.3395585 C106.387312,87.4712518 106.074155,87.5774215 105.752111,87.6761915 C105.039,87.9025796 104.313645,88.0557213 103.574202,88.1872001 C103.19928,88.2593741 102.462438,88.3238266 102.363398,88.3214286 C101.904172,88.2909033 101.595674,87.8343736 101.856061,87.4256739 C101.992268,87.2030393 102.208445,87.1144573 102.468723,87.0891481 C103.934171,87.0208349 105.20674,86.765277 106.274836,86.3301957 C105.566276,85.8733443 104.933459,85.3103232 104.386354,84.6701951 C104.392747,84.6879972 104.139403,84.9688643 104.110471,84.9903128 C104.024326,85.0978766 103.934171,85.2027594 103.825595,85.3052828 C103.477113,85.6646512 103.091246,86.0010697 102.665612,86.2768964 C102.2662,86.5425351 101.836123,86.9272126 101.319792,86.9272126 C101.074684,86.9272126 100.891448,86.8436709 100.75069,86.6755153 L100.746139,86.6716546 L100.737145,86.659 C100.533972,86.3010259 100.640055,85.9744736 101.037408,85.7405786 C102.568413,84.9739047 103.746493,83.7467332 104.54705,82.0792256 L102.535039,82.0792256 C102.12024,82.0450154 101.904172,81.8212011 101.904172,81.4567924 L101.904172,81.4365236 C101.836123,81.4618328 101.758321,81.4720208 101.665674,81.4720208 C101.250876,81.4720208 101.028414,81.2518527 101.028414,80.8495876 L101.028414,79.8475173 C101.028414,78.9948352 101.540411,78.8164916 101.97038,78.8164916 L103.404404,78.8164916 C103.351741,78.7317703 103.289977,78.6305338 103.19928,78.5028084 C103.062314,78.2787797 102.839853,78.1144847 102.742655,77.8652541 C102.709389,77.8094882 102.693785,77.7526499 102.6875,77.6918436 C102.6875,77.679189 102.693785,77.5450291 102.709389,77.5450291 C102.427005,77.5374149 102.223832,77.5172534 102.104962,77.4906574 C101.555798,77.4349987 101.440612,77.1237821 101.440612,76.8732645 C101.471495,76.6215673 101.617454,76.3470275 102.175612,76.3470275 C103.082361,76.3976458 103.977948,76.41148 104.84092,76.41148 C107.256785,76.41148 109.537527,76.2419302 111.638284,75.8928571 L111.757371,75.8928571 Z M97.0705348,75.7857143 C97.2021867,75.7857143 97.3049893,75.891743 97.3049893,76.0204538 L97.3049893,87.9857517 C97.3049893,88.1107179 97.2021867,88.2142857 97.0705348,88.2142857 L94.7427832,88.2142857 C94.6138225,88.2142857 94.5109123,88.1107179 94.5109123,87.9857517 L94.5109123,76.0204538 C94.5109123,75.891743 94.6138225,75.7857143 94.7427832,75.7857143 L97.0705348,75.7857143 Z M126.548841,80.9285714 C126.918484,80.9285714 127.143037,81.1154992 127.180121,81.4770134 C127.180121,81.8496987 126.980109,82.0682243 126.610466,82.1083335 L125.190601,82.1083335 L125.190601,86.8914287 C125.140004,87.7724468 124.486237,88.2142857 123.238382,88.2142857 C122.703324,88.2142857 122.060477,88.1640695 121.280973,88.0109738 C121.094367,87.9706519 120.971117,87.9054347 120.900518,87.7774471 C120.814567,87.652013 120.805486,87.4787032 120.865165,87.276668 C120.959549,87.0018618 121.146803,86.8587669 121.41125,86.8537665 C121.472767,86.8487662 121.534392,86.8587669 121.604883,86.8750446 C122.243298,87.0018618 122.764841,87.0369706 123.147998,87.0369706 C123.899955,87.0369706 123.965154,86.7723756 123.970505,86.6595929 L123.970964,82.1083335 L115.300198,82.1083335 C115.073699,82.0895024 114.928177,82.0180081 114.82482,81.901298 C114.734977,81.7933118 114.699731,81.6476635 114.719624,81.4770134 C114.761248,81.1154992 115.001262,80.9285714 115.401609,80.9285714 L126.548841,80.9285714 Z M90.8099468,75.7857143 L93.1709769,75.7934177 C93.2927175,75.7984463 93.4362673,75.8967716 93.4362673,76.0204538 C93.4362673,76.0482717 93.4318186,76.0709539 93.4208598,76.1012325 L90.4719593,83.5431397 L90.4719593,87.9857517 C90.4719593,88.1107179 90.3700747,88.2142857 90.2394369,88.2142857 L87.8165599,88.2142857 C87.6902622,88.2142857 87.5840375,88.1107179 87.5840375,87.9857517 L87.5840375,83.5431397 L84.6395856,76.1012325 C84.6395856,76.1012325 84.6241782,76.0482717 84.6241782,76.0204538 C84.6241782,75.8967716 84.6795148,75.7984463 84.7986513,75.7934177 L87.2768649,75.7857143 C87.3787494,75.7857143 87.4560037,75.840066 87.4958244,75.9258733 L89.0424293,79.8220791 L90.5819815,75.9346466 C90.5819815,75.9321858 90.6392712,75.7857143 90.8099468,75.7857143 Z M220.864876,82.3276136 L220.981988,82.331875 C221.32677,82.435 221.481922,82.675625 221.447444,83.05375 C221.447444,83.569375 221.395726,83.981875 221.292292,84.29125 C221.292292,84.42875 221.257813,84.5834375 221.188857,84.7553125 C223.636809,85.6490625 225.446914,86.3365625 226.619173,86.8178125 C226.929476,86.9896875 227.05015,87.2646875 226.981194,87.6428125 C226.808803,87.9865625 226.515738,88.0896875 226.102,87.9521875 C224.653916,87.3334375 222.86105,86.594375 220.723401,85.735 C220.102794,86.76625 218.327167,87.59125 215.396521,88.21 C214.948304,88.244375 214.655239,88.0896875 214.517327,87.7459375 C214.517327,87.3334375 214.672478,87.075625 214.982782,86.9725 C218.327167,86.456875 220.033838,85.5115625 220.102794,84.1365625 C220.137272,83.9990625 220.17175,83.7240625 220.206229,83.3115625 C220.240707,83.1053125 220.257946,82.950625 220.257946,82.8475 C220.292424,82.469375 220.533771,82.2975 220.981988,82.331875 Z M83.3189681,75.7857143 C83.4444464,75.7857143 83.5495332,75.8866586 83.5495332,76.0129729 L83.5495332,87.984351 C83.5495332,88.1119498 83.4444464,88.2142857 83.3189681,88.2142857 L80.9929262,88.2142857 C80.858385,88.2142857 80.7554561,88.1119498 80.7554561,87.984351 L80.7554561,76.0129729 C80.7554561,75.8866586 80.858385,75.7857143 80.9929262,75.7857143 L83.3189681,75.7857143 Z M69.5639842,79.8571429 C69.6975587,79.8571429 69.794077,79.9566975 69.794077,80.0865886 L69.794077,87.9861218 C69.794077,88.1108856 69.6975587,88.2142857 69.5639842,88.2142857 L67.2299851,88.2142857 C67.1029816,88.2142857 67,88.1108856 67,87.9861218 L67,80.0865886 C67,79.9566975 67.1029816,79.8571429 67.2299851,79.8571429 L69.5639842,79.8571429 Z M165.128494,80.9285714 C165.498134,80.9285714 165.722685,81.1154992 165.759876,81.4770134 C165.759876,81.8496987 165.559759,82.0682243 165.190119,82.1083335 L163.770266,82.1083335 L163.770266,86.8914287 C163.719669,87.7724468 163.065908,88.2142857 161.818064,88.2142857 C161.283011,88.2142857 160.640061,88.1640695 159.860671,88.0109738 C159.674068,87.9706519 159.550819,87.9054347 159.480221,87.7774471 C159.39427,87.652013 159.385189,87.4787032 159.444867,87.276668 C159.53925,87.0018618 159.726611,86.8587669 159.990948,86.8537665 C160.052465,86.8487662 160.114089,86.8587669 160.184579,86.8750446 C160.823096,87.0018618 161.344527,87.0369706 161.727681,87.0369706 C162.479631,87.0369706 162.544924,86.7723756 162.550287,86.6595929 L162.550748,82.1083335 L153.879949,82.1083335 C153.653452,82.0895024 153.507931,82.0180081 153.404575,81.901298 C153.314732,81.7933118 153.279487,81.6476635 153.29938,81.4770134 C153.341004,81.1154992 153.581124,80.9285714 153.981359,80.9285714 L165.128494,80.9285714 Z M212.965808,82.8475 L213.064135,82.8646875 C213.312718,82.9257986 213.452333,83.1091319 213.482981,83.4146875 C213.448503,83.7584375 213.276112,83.9475 212.965808,83.981875 L212.965808,83.981875 L207.070037,83.981875 L206.867104,84.212925 C205.805796,85.4156931 205.080442,86.146489 204.691041,86.4053125 C204.622085,86.5428125 204.656563,86.6115625 204.794476,86.6115625 C206.277038,86.5428125 208.018187,86.456875 210.017922,86.35375 C209.914488,86.250625 209.759336,86.07875 209.552467,85.838125 C209.428345,85.714375 209.322842,85.6091875 209.235957,85.5225625 L209.087011,85.3740625 C208.845664,85.1334375 208.862903,84.8928125 209.138728,84.6521875 C209.414554,84.4803125 209.690379,84.4975 209.966205,84.70375 C211.103985,85.769375 211.931462,86.594375 212.448635,87.17875 C212.655504,87.45375 212.638265,87.72875 212.396918,88.00375 C212.086614,88.21 211.793549,88.1928125 211.517724,87.9521875 L211.517724,87.9521875 L211.20742,87.6428125 C211.103985,87.5053125 211.035029,87.419375 211.000551,87.385 C210.690247,87.385 210.155835,87.419375 209.397315,87.488125 C207.018319,87.59125 205.190975,87.6771875 203.915282,87.7459375 C203.398109,87.7459375 203.070566,87.59125 202.932653,87.281875 C202.863697,86.90375 202.984371,86.56 203.294674,86.250625 C204.018716,85.631875 204.759998,84.875625 205.518518,83.981875 L205.518518,83.981875 L202.105177,83.981875 L201.995996,83.9646875 C201.72017,83.9035764 201.566934,83.7202431 201.536286,83.4146875 C201.570765,83.0709375 201.760395,82.881875 202.105177,82.8475 L202.105177,82.8475 L212.965808,82.8475 Z M137.888571,80.1785714 C138.347558,80.1785714 138.663492,80.3326074 138.822489,80.6416419 C138.913267,80.8776164 138.921618,81.21457 138.480201,81.5439288 C138.345498,81.6461915 138.10223,81.8064317 137.751482,82.0032553 C132.535815,85.3687264 131.233145,86.1688575 131.261453,86.3643975 C131.279565,86.5157592 131.173277,86.8640515 133.308784,86.8640515 L138.074032,86.8640515 C138.455581,86.8528198 138.782685,86.9195687 139.016843,86.6824175 C139.226706,86.4742551 139.248614,86.0439172 139.226706,85.5339941 C139.226706,85.4356892 139.23766,85.3321429 139.257508,85.2413258 C139.308482,84.9460903 139.564548,84.7062649 139.876034,84.7062649 C139.944362,84.7062649 140.010629,84.7213476 140.069737,84.7517269 C140.359316,84.8828714 140.474063,85.1630242 140.49391,85.4621107 C140.55573,86.4400249 140.374934,87.1581104 139.948808,87.5934758 C139.617366,87.9393079 139.279416,88.1071429 138.26383,88.1071429 L134.319814,88.1071429 C132.703705,88.1071429 131.563937,87.9846629 130.892701,87.7499721 C130.318641,87.5367821 129.985138,87.2351284 129.837203,86.8640515 C129.561182,86.1575187 130.175153,85.5051124 130.175153,85.5051124 C131.104516,84.4311397 133.776664,83.0279152 136.543495,81.3218603 L130.066914,81.3218603 C129.508255,81.3218603 129.364767,81.0113282 129.329411,80.7652986 C129.329411,80.5318913 129.422032,80.1785714 130.014204,80.1785714 L137.888571,80.1785714 Z M169.619671,80.8214286 C169.933276,80.8214286 170.171243,80.90368 170.32707,81.0659456 C170.483548,81.2289569 170.553767,81.4682533 170.535562,81.7775486 L170.535779,84.8176566 C170.598847,85.2342411 170.792276,85.5909483 171.11195,85.8758452 C171.103714,85.8338671 171.097537,85.7898647 171.093311,85.7436249 L171.092661,82.3795186 C171.092661,81.5947202 171.479628,81.1797339 172.21141,81.1797339 L178.317607,81.1797339 C179.25257,81.1797339 179.746927,81.6298795 179.746927,82.4809478 L179.746927,85.5796547 C179.792656,85.8640189 179.734681,86.108749 179.573544,86.2929624 C179.356708,86.5406757 178.952511,86.6662903 178.371897,86.6662903 C178.008661,86.6662903 177.564261,86.6180262 177.050616,86.5229895 C176.478238,86.370526 176.394473,86.0015663 176.423298,85.7188003 C176.534154,85.4162172 176.755758,85.2738753 177.071856,85.2738753 C177.143701,85.2738753 177.222806,85.2813333 177.306897,85.2963559 C177.770478,85.4307071 178.107056,85.4976163 178.31739,85.4976163 C178.437674,85.4976163 178.485029,85.4742833 178.493048,85.4651206 L178.492615,82.6842325 C178.492615,82.4569756 178.378291,82.3600211 178.110523,82.3600211 L175.932301,82.3600211 L175.932301,83.7381594 L176.582484,83.7381594 L176.582484,83.631616 C176.582484,83.3374498 176.825111,83.0988993 177.124304,83.0988993 C177.423496,83.0988993 177.666123,83.3374498 177.666123,83.631616 L177.666123,84.2708761 C177.666123,84.5650423 177.423496,84.8035929 177.124304,84.8035929 L173.873387,84.8035929 C173.574194,84.8035929 173.331567,84.5650423 173.331567,84.2708761 C173.331567,83.9767099 173.574194,83.7381594 173.873387,83.7381594 L174.848662,83.7381594 L174.848662,82.3600211 L172.470183,82.3600211 C172.42402,82.3600211 172.346865,82.3600211 172.346865,82.5825902 L172.346865,85.6811905 C172.346865,86.0942591 172.173808,86.285824 171.975718,86.369354 C172.605963,86.6007662 173.439606,86.7177508 174.460936,86.7177508 L179.559457,86.7163657 C179.804143,86.7163657 180.10702,86.8253595 180.16012,87.3441191 C180.160877,87.8311288 179.871328,87.9671846 179.628268,87.9972299 L174.643637,87.9981888 L174.421275,88 C172.328009,88 170.869865,87.5451664 170.08466,86.648391 C169.669085,87.088202 169.101366,87.5022295 168.395159,87.8804584 C168.25667,87.9412946 168.130101,87.9704875 168.012634,87.9704875 C167.798399,87.9704875 167.60952,87.8786471 167.451417,87.6980561 C167.263298,87.2972401 167.352806,86.993485 167.689493,86.7873236 C168.669644,86.3057476 169.199761,85.833654 169.230211,85.4178153 L169.229777,82.2269485 C169.229777,82.0799186 169.194349,82.0589144 169.169623,82.0559138 L167.864609,82.0554137 C167.62014,82.0554137 167.31748,81.955476 167.264379,81.4795469 C167.263514,80.9914718 167.552954,80.8552028 167.796015,80.8253707 L169.520626,80.8241987 C169.549451,80.8226005 169.584994,80.8214286 169.619671,80.8214286 Z M189.259965,77.1785714 C189.634606,77.1785714 189.939389,77.4786957 189.939389,77.8480135 C189.937539,77.9014617 189.934275,77.9326309 189.927746,77.9643357 C189.917518,78.0277452 189.892491,78.0989739 189.856257,78.164847 L186.304407,87.3250632 L186.306909,87.3314898 L186.282318,87.3943638 L186.257726,87.4449201 C186.238684,87.495155 186.204299,87.5557797 186.163277,87.6093351 C186.115182,87.6701739 186.064367,87.7188022 186.006805,87.7593972 C185.944347,87.8030984 185.878189,87.8361956 185.809746,87.857939 C185.73423,87.8813963 185.659803,87.8928571 185.587116,87.8928571 C185.51258,87.8928571 185.438152,87.8813963 185.365901,87.8583675 C185.280266,87.8288049 185.221725,87.7984926 185.167645,87.7603612 C185.109648,87.7199804 185.057636,87.6708166 185.013349,87.614155 C184.967866,87.5555655 184.933481,87.4945124 184.907692,87.4272468 L184.858074,87.3303116 L184.864711,87.3160659 L181.30111,78.1322853 C181.279456,78.099081 181.254865,78.0263528 181.243004,77.9528749 C181.237672,77.9313456 181.23419,77.8948208 181.234765,77.8596885 C181.233755,77.6771718 181.304809,77.5037596 181.434296,77.3749054 C181.561715,77.2481934 181.731571,77.1785714 181.912743,77.1785714 C182.202837,77.1785714 182.458111,77.359053 182.553104,77.6296147 C182.561482,77.6454671 182.570514,77.6667821 182.58183,77.6977371 L185.586246,85.4501971 L188.591749,77.6948451 C188.60448,77.6607839 188.617429,77.6316498 188.63016,77.6069072 C188.705349,77.3634445 188.96824,77.1785714 189.259965,77.1785714 Z M194.667922,77.2857143 C195.799652,77.2857143 196.697077,77.5407912 197.335261,78.0443279 C198.005754,78.5740127 198.345664,79.3422317 198.345664,80.3276396 C198.345664,80.9735497 198.134562,81.5670571 197.717997,82.091619 C197.567179,82.2820195 197.393267,82.4506477 197.199188,82.595049 C197.435553,82.7375291 197.633535,82.9095726 197.789665,83.108618 C198.158849,83.5785358 198.345664,84.174818 198.345664,84.8808153 L198.34111,85.7419933 C198.34111,85.9888523 198.370926,86.2103102 198.429475,86.3997502 C198.47317,86.5403093 198.540068,86.651732 198.633638,86.7402085 C198.77242,86.8566473 198.858943,87.0424586 198.858943,87.231685 C198.858943,87.5963703 198.557849,87.8928571 198.187798,87.8928571 C197.970517,87.8928571 197.762885,87.7896524 197.603068,87.602347 C197.396954,87.371924 197.240606,87.0856829 197.140423,86.7544031 C197.047503,86.4471368 197.000339,86.1016624 197.000339,85.7275852 L197.004893,84.8925553 C197.004893,84.3944616 196.842365,84.0214517 196.508094,83.7529273 C196.148452,83.4636978 195.603296,83.3170553 194.887915,83.3170553 L192.357624,83.3170553 L192.354805,87.2385156 C192.341144,87.60779 192.047206,87.8928571 191.685504,87.8928571 C191.315128,87.8928571 191.014034,87.5963703 191.014034,87.231685 L191.016745,77.7686527 C191.016745,77.5023695 191.236737,77.2857143 191.507146,77.2857143 L194.667922,77.2857143 Z M75.2154972,76.8571429 C74.7686513,76.8571429 74.4150506,77.1170047 74.4150506,77.433933 L74.4150506,86.5659596 C74.4150506,86.8867567 74.7686513,87.1428571 75.2154972,87.1428571 C75.6663298,87.1428571 76.0270181,86.8867567 76.0270181,86.5659596 L76.0270181,77.433933 C76.0270181,77.1170047 75.6663298,76.8571429 75.2154972,76.8571429 Z M160.697242,82.8571429 C160.939785,82.8823507 161.126449,82.9555174 161.254097,83.0852948 C161.373423,83.2149654 161.436869,83.3662122 161.461296,83.5653111 L161.461296,85.6898159 C161.436869,85.8850695 161.373423,86.0476385 161.254097,86.1609668 C161.126449,86.2920259 160.939785,86.3626291 160.697242,86.3928571 L155.12102,86.3928571 C154.883125,86.3626291 154.691922,86.2920259 154.566219,86.1609668 C154.452081,86.0476385 154.390473,85.8850695 154.368639,85.6898159 L154.368639,83.5653111 C154.390473,83.3662122 154.452081,83.2149654 154.566219,83.0852948 C154.691922,82.9555174 154.883125,82.8823507 155.12102,82.8571429 L160.697242,82.8571429 Z M122.224951,82.8571429 C122.467494,82.8823507 122.654157,82.9555174 122.781806,83.0852948 C122.901024,83.2149654 122.964578,83.3662122 122.989005,83.5653111 L122.989005,85.6898159 C122.964578,85.8850695 122.901024,86.0476385 122.781806,86.1609668 C122.654157,86.2920259 122.467494,86.3626291 122.224951,86.3928571 L116.648729,86.3928571 C116.410725,86.3626291 116.219631,86.2920259 116.093928,86.1609668 C115.97979,86.0476385 115.918181,85.8850695 115.896348,85.6898159 L115.896348,83.5653111 C115.918181,83.3662122 115.97979,83.2149654 116.093928,83.0852948 C116.219631,82.9555174 116.410725,82.8823507 116.648729,82.8571429 L122.224951,82.8571429 Z M225.119371,80.99125 L225.243277,80.9966211 C225.677846,81.0360091 225.895131,81.2920313 225.895131,81.7646875 L225.895131,81.7646875 L225.895131,85.013125 L225.877253,85.1226157 C225.812553,85.4010108 225.611643,85.5707639 225.274523,85.631875 C224.895263,85.5975 224.688394,85.39125 224.653916,85.013125 L224.653916,85.013125 L224.653916,82.331875 L224.647583,82.2634758 C224.622252,82.1372003 224.520928,82.0740625 224.343612,82.0740625 L224.343612,82.0740625 L217.206626,82.0740625 L217.138021,82.079324 C217.011367,82.1003699 216.948039,82.1845536 216.948039,82.331875 L216.948039,82.331875 L216.948039,85.11625 L216.919307,85.2359259 C216.827366,85.5380864 216.612835,85.7044444 216.275714,85.735 C215.930933,85.700625 215.741302,85.494375 215.706824,85.11625 L215.706824,85.11625 L215.706824,81.7646875 L215.712211,81.6411523 C215.751718,81.2078841 216.008508,80.99125 216.482584,80.99125 L216.482584,80.99125 L225.119371,80.99125 Z M109.211124,83.8214286 L105.472291,83.8214286 C105.95222,84.4712668 106.64314,85.0440225 107.522543,85.5357143 C108.976545,84.5378432 109.222002,84.1033274 109.230942,83.9284816 C109.239235,83.8880049 109.226418,83.8528367 109.211124,83.8214286 Z M159.985021,83.9285714 L155.849511,83.9285714 C155.639721,83.9285714 155.550749,84.0181844 155.550749,84.2193519 L155.550749,85.0369481 C155.550749,85.2343139 155.639721,85.3214286 155.849511,85.3214286 L159.985021,85.3214286 C160.194811,85.3214286 160.279187,85.2343139 160.279187,85.0369481 L160.279187,84.2193519 C160.279187,84.0181844 160.194811,83.9285714 159.985021,83.9285714 Z M121.512729,83.9285714 L117.37722,83.9285714 C117.16743,83.9285714 117.078457,84.0181844 117.078457,84.2193519 L117.078457,85.0369481 C117.078457,85.2343139 117.16743,85.3214286 117.37722,85.3214286 L121.512729,85.3214286 C121.72252,85.3214286 121.806896,85.2343139 121.806896,85.0369481 L121.806896,84.2193519 C121.806896,84.0181844 121.72252,83.9285714 121.512729,83.9285714 Z M146.899261,81.5714286 C147.407917,81.5714286 147.813305,81.9775176 147.813305,82.4833915 C147.813305,82.9932829 147.407917,83.3928571 146.899261,83.3928571 C146.396342,83.3928571 145.986408,82.9932829 145.986408,82.4833915 C145.986408,81.9775176 146.396342,81.5714286 146.899261,81.5714286 Z M194.600726,78.5714286 L192.303608,78.5714286 L192.303608,82 L194.534527,82 C195.392415,82 196.016128,81.8315994 196.388631,81.499548 C196.749058,81.1780755 196.924582,80.7897826 196.924582,80.3123237 C196.924582,79.741273 196.752508,79.3239418 196.398765,79.0363654 C196.019578,78.7278468 195.414517,78.5714286 194.600726,78.5714286 Z M210.431661,80.16625 L210.540842,80.1834375 C210.816667,80.2445486 210.969903,80.4278819 211.000551,80.7334375 C210.966073,81.0771875 210.776442,81.26625 210.431661,81.300625 L210.431661,81.300625 L204.587607,81.300625 L204.478426,81.2834375 C204.2026,81.2223264 204.049364,81.0389931 204.018716,80.7334375 C204.053195,80.3896875 204.242825,80.200625 204.587607,80.16625 L204.587607,80.16625 L210.431661,80.16625 Z M207.535492,75.7834375 C207.845796,75.7834375 208.1561,75.9553125 208.466403,76.2990625 C209.569706,77.7771875 211.20742,78.963125 213.379546,79.856875 C213.724328,80.02875 213.827763,80.3209375 213.68985,80.7334375 C213.482981,81.1115625 213.155438,81.1975 212.707221,80.99125 C210.707486,80.02875 209.035294,78.79125 207.690644,77.27875 C207.621688,77.175625 207.535492,77.175625 207.432058,77.27875 C206.05293,78.825625 204.346259,80.1146875 202.312046,81.1459375 C201.967264,81.3521875 201.65696,81.2834375 201.381135,80.9396875 C201.243222,80.5615625 201.346656,80.269375 201.691438,80.063125 C203.829086,78.9975 205.48404,77.7428125 206.656298,76.2990625 C206.966602,75.9553125 207.259667,75.7834375 207.535492,75.7834375 Z M111.42362,80.0715242 L106.58174,80.0715352 C106.58808,80.2044203 106.555629,80.4324742 106.439472,80.8602689 L111.136481,80.8602689 C111.298413,80.8602689 111.429722,80.8847586 111.532447,80.9285714 C111.536853,80.8688455 111.608954,80.3995112 111.596274,80.1947071 C111.590365,80.085089 111.506178,80.0726317 111.42362,80.0715242 Z M105.257362,80.0717464 L102.536367,80.0717464 C102.477708,80.0717464 102.363613,80.0633431 102.302375,80.1329556 C102.208585,80.2395011 102.265417,80.8293918 102.265417,80.8293918 C102.265417,80.8685034 102.265417,80.8979668 102.262732,80.9285714 C102.357167,80.8832351 102.477708,80.8636274 102.604588,80.8636274 L105.010585,80.8636274 C105.115119,80.6311362 105.198703,80.3643056 105.257362,80.0717464 Z M160.149988,78.1428571 C160.214926,78.1428571 160.277344,78.1428571 160.350714,78.1579977 C161.94732,78.4747687 163.465409,78.8118345 164.87684,79.5135627 C164.965868,79.5654272 165.055554,79.6299626 165.129033,79.6983636 C165.229122,79.789744 165.286832,79.9112982 165.314099,80.0353221 C165.338191,80.1366888 165.338191,80.2862691 165.291322,80.3952598 C165.204374,80.6332138 164.970358,80.7142857 164.749483,80.7142857 C164.644905,80.7142857 164.531018,80.6966754 164.415379,80.6383681 C163.416569,80.1050117 161.99616,79.7947909 160.101148,79.3615126 C159.595009,79.2171939 159.481231,78.8750813 159.541679,78.6064166 C159.604098,78.336678 159.849064,78.1428571 160.149988,78.1428571 Z M121.677697,78.1428571 C121.742634,78.1428571 121.805053,78.1428571 121.878422,78.1579977 C123.475028,78.4747687 124.993118,78.8118345 126.404548,79.5135627 C126.493577,79.5654272 126.583263,79.6299626 126.656742,79.6983636 C126.756831,79.789744 126.814541,79.9112982 126.841808,80.0353221 C126.865899,80.1366888 126.865899,80.2862691 126.819031,80.3952598 C126.732082,80.6332138 126.498067,80.7142857 126.277192,80.7142857 C126.172613,80.7142857 126.058836,80.6966754 125.943087,80.6383681 C124.944278,80.1050117 123.523868,79.7947909 121.628857,79.3615126 C121.122717,79.2171939 121.00894,78.8750813 121.069388,78.6064166 C121.131806,78.336678 121.376773,78.1428571 121.677697,78.1428571 Z M159.528956,75.723188 C159.74161,75.7833475 159.867378,76.0173012 159.865315,76.2277003 C159.854345,76.4003273 159.842833,76.5404873 159.80091,76.7857938 L164.360705,76.7857938 C164.566408,76.7857938 164.90016,76.8533804 164.90016,77.3515266 C164.90016,77.8873389 164.566408,77.9674454 164.360705,77.9674454 L159.513425,77.9674454 C158.753061,79.5546167 156.880009,80.4457626 153.943033,80.6071429 C153.814876,80.6071429 153.658155,80.5708562 153.54542,80.5095295 C153.324403,80.3856031 153.251527,80.105177 153.317234,79.8774833 C153.39717,79.6171104 153.671079,79.4568973 153.936625,79.4344038 C154.332284,79.3981171 154.724141,79.3642707 155.115456,79.3116444 C155.458331,79.2716442 155.807614,79.2040576 156.147883,79.1264974 C156.437974,79.0463909 156.716336,78.958645 156.983729,78.8311111 C157.209308,78.7271317 157.423917,78.5881388 157.614198,78.4318514 C157.702496,78.3629916 157.784278,78.2853253 157.866169,78.2052187 C157.89256,78.1652185 157.945995,78.1238389 157.974451,78.0900987 C157.996281,78.0674991 158.065355,77.9674454 158.087186,77.9674454 L154.401359,77.9674454 C153.992015,77.9674454 153.76459,77.7520595 153.76459,77.3515266 C153.76459,76.9860072 153.992015,76.7857938 154.401359,76.7857938 L158.474481,76.7857938 C158.485451,76.7745471 158.489904,76.7658468 158.500982,76.7432472 C158.531935,76.5630869 158.61578,76.137408 158.61578,76.137408 C158.631203,76.0573014 158.68214,75.9672213 158.734923,75.8921015 C158.905655,75.671941 159.270578,75.6343811 159.528956,75.723188 Z M120.9492,75.723188 C121.161854,75.7833475 121.287514,76.0173012 121.285559,76.2277003 C121.274589,76.4003273 121.263077,76.5404873 121.221154,76.7857938 L125.780949,76.7857938 C125.986652,76.7857938 126.320405,76.8533804 126.320405,77.3515266 C126.320405,77.8873389 125.986652,77.9674454 125.780949,77.9674454 L120.933669,77.9674454 C120.173305,79.5546167 118.300253,80.4457626 115.363277,80.6071429 C115.23512,80.6071429 115.078399,80.5708562 114.965664,80.5095295 C114.744647,80.3856031 114.671771,80.105177 114.737479,79.8774833 C114.817414,79.6171104 115.091323,79.4568973 115.35687,79.4344038 C115.752528,79.3981171 116.144386,79.3642707 116.5357,79.3116444 C116.878575,79.2716442 117.22775,79.2040576 117.568127,79.1264974 C117.858219,79.0463909 118.136581,78.958645 118.403973,78.8311111 C118.629661,78.7271317 118.844161,78.5881388 119.034442,78.4318514 C119.122741,78.3629916 119.204522,78.2853253 119.286413,78.2052187 C119.312804,78.1652185 119.366239,78.1238389 119.394695,78.0900987 C119.416525,78.0674991 119.4856,77.9674454 119.50743,77.9674454 L115.821603,77.9674454 C115.41226,77.9674454 115.184835,77.7520595 115.184835,77.3515266 C115.184835,76.9860072 115.41226,76.7857938 115.821603,76.7857938 L119.894726,76.7857938 C119.905695,76.7745471 119.910148,76.7658468 119.921226,76.7432472 C119.952179,76.5630869 120.036025,76.137408 120.036025,76.137408 C120.051447,76.0573014 120.102384,75.9672213 120.155167,75.8921015 C120.326008,75.671941 120.690822,75.6343811 120.9492,75.723188 Z M178.239309,76.5357143 C178.647268,76.5357143 178.97801,76.8005106 178.97801,77.1270997 L178.97801,80.0133154 C178.97801,80.3399046 178.647268,80.6045947 178.239309,80.6045947 L176.54791,80.6045947 L176.54791,80.6045947 C176.076597,80.6049132 176.006419,79.8694506 175.431682,79.8830408 C174.875354,79.8962063 174.857052,80.6024712 174.334297,80.6045947 C172.940501,80.6103281 172.624162,80.6045947 172.624162,80.6045947 C172.216204,80.6045947 171.885353,80.3399046 171.885353,80.0133154 L171.885353,77.1270997 C171.885353,76.8005106 172.216204,76.5357143 172.624162,76.5357143 L178.239309,76.5357143 Z M137.263002,75.6785714 C137.773882,75.6785714 137.849239,76.0062877 137.849239,76.2070315 L137.849239,77.0430689 L140.725047,77.0430689 C140.897802,77.0430689 141.205091,77.1166246 141.25797,77.6095453 L141.25797,77.6274227 C141.205091,78.122928 140.897802,78.1941145 140.725047,78.1941145 L137.798422,78.1941145 L137.798422,79.3857612 C137.798422,79.5572119 137.722957,79.8571429 137.212076,79.8571429 C136.708145,79.8571429 136.63344,79.5572119 136.63344,79.3857612 L136.63344,78.1941145 L133.372489,78.1941145 L133.372489,79.3857612 C133.372489,79.5572119 133.299522,79.8571429 132.793093,79.8571429 C132.28927,79.8571429 132.213805,79.5572119 132.213805,79.3857612 L132.213805,78.1941145 L129.112037,78.1941145 C128.919846,78.1941145 128.577159,78.1152817 128.577159,77.6171916 C128.577159,77.1166246 128.919846,77.0430689 129.112037,77.0430689 L132.213805,77.0430689 L132.213805,76.2070315 C132.213805,76.0062877 132.28927,75.6785714 132.844127,75.6785714 C133.349904,75.6785714 133.425261,76.0062877 133.425261,76.2070315 L133.425261,77.0430689 L136.63344,77.0430689 L136.63344,76.2070315 C136.63344,76.0062877 136.717157,75.6785714 137.263002,75.6785714 Z M168.703352,76.6428571 C168.890835,76.6428571 169.069718,76.7270951 169.235271,76.8933999 C169.718169,77.3808076 170.207839,78.0155232 170.691059,78.7798524 C170.89972,79.1582718 170.834144,79.4875163 170.504651,79.7370821 C170.376617,79.8183891 170.255247,79.8571429 170.136781,79.8571429 C169.925862,79.8571429 169.727521,79.7386018 169.547564,79.5048849 C169.067891,78.7810465 168.622726,78.1935519 168.22024,77.7542336 C168.086077,77.6193009 168.016631,77.4699305 168.016631,77.3133956 C168.016416,77.1398176 168.103493,76.9635258 168.275281,76.790165 C168.433953,76.6860617 168.569943,76.6428571 168.703352,76.6428571 Z M224.447046,76.2990625 L224.563051,76.3126693 C224.971283,76.3809418 225.191201,76.6514063 225.222806,77.1240625 L225.222806,77.1240625 L225.222806,79.031875 L225.209517,79.1557682 C225.143674,79.5916623 224.889517,79.8253646 224.447046,79.856875 L224.447046,79.856875 L217.154908,79.856875 L217.030643,79.8432682 C216.593441,79.7749957 216.359037,79.5045312 216.327432,79.031875 L216.327432,79.031875 L216.327432,77.1240625 L216.341079,77.0001693 C216.409557,76.5642752 216.680833,76.3305729 217.154908,76.2990625 L217.154908,76.2990625 L224.447046,76.2990625 Z M176.93624,77.6071429 C176.402082,77.6071429 175.969004,78.0148844 175.969004,78.5178571 C175.969004,79.0209355 176.402082,79.4285714 176.93624,79.4285714 C177.470288,79.4285714 177.903365,79.0209355 177.903365,78.5178571 C177.903365,78.0148844 177.470288,77.6071429 176.93624,77.6071429 Z M173.927123,77.6071429 C173.392964,77.6071429 172.959998,78.0148844 172.959998,78.5178571 C172.959998,79.0209355 173.392964,79.4285714 173.927123,79.4285714 C174.461393,79.4285714 174.894359,79.0209355 174.894359,78.5178571 C174.894359,78.0148844 174.461393,77.6071429 173.927123,77.6071429 Z M223.723004,77.3303125 L217.827233,77.3303125 L217.758629,77.335574 C217.631974,77.3566199 217.568647,77.4408036 217.568647,77.588125 L217.568647,77.588125 L217.568647,78.619375 L217.57583,78.6823958 C217.599773,78.7778819 217.683574,78.825625 217.827233,78.825625 L217.827233,78.825625 L223.723004,78.825625 C223.895395,78.825625 223.981591,78.756875 223.981591,78.619375 L223.981591,78.619375 L223.981591,77.588125 L223.976314,77.5197258 C223.955204,77.3934503 223.870768,77.3303125 223.723004,77.3303125 L223.723004,77.3303125 Z M105.8606,77.5 L103.967788,77.5 C104.170739,77.7559283 104.356643,78.0398352 104.52014,78.3405509 C104.614164,78.4839141 104.622527,78.6334586 104.570207,78.7857143 L106.332007,78.7857143 C106.246775,78.5681752 106.118228,78.267568 105.935005,77.8965804 C105.871429,77.7930162 105.83637,77.6522556 105.8606,77.5 Z M109.878336,77.2857143 C109.095874,77.3681204 108.162439,77.4333151 107.084259,77.4887045 C107.259499,77.8270912 107.444941,78.2578979 107.643697,78.7857143 L108.929653,78.7857143 C109.296563,78.4128005 109.587879,77.9600884 109.777723,77.4370703 L109.784166,77.4333151 L109.788568,77.4296642 C109.812728,77.3791774 109.838821,77.3349493 109.878336,77.2857143 Z M69.5639842,75.7857143 C69.6975587,75.7857143 69.794077,75.8924718 69.794077,76.0220675 L69.794077,78.3350754 C69.794077,78.4633783 69.6975587,78.5714286 69.5639842,78.5714286 L67.2299851,78.5714286 C67.1029816,78.5714286 67,78.4633783 67,78.3350754 L67,76.0220675 C67,75.8924718 67.1029816,75.7857143 67.2299851,75.7857143 L69.5639842,75.7857143 Z M82.1572213,70 C88.3523082,70 93.589513,70.658093 95.2784991,71.41777 C95.8565332,71.6776963 96.2525796,71.9606269 96.666129,72.5451923 C97.0821788,73.1183631 97.2551433,73.9691971 97.301673,74.5994485 C97.3171105,74.6756635 97.2815609,74.8214286 97.1332745,74.8214286 L94.6592622,74.8150863 C94.4953209,74.8150863 94.4797748,74.6971627 94.4488999,74.6096607 C94.3488827,74.3294175 94.118517,73.8880373 93.8507536,73.6497178 C93.3837168,73.2476813 93.0714892,73.1284678 92.434097,73.0422556 C89.8510442,72.6668782 85.7118542,72.4741372 82.1526553,72.4741372 C78.5889992,72.4741372 74.4523097,72.6668782 71.8692568,73.0422556 C71.2338215,73.1284678 70.9215939,73.2476813 70.4570575,73.6497178 C70.1848368,73.8880373 69.9636031,74.3294175 69.8635859,74.6096607 C69.823579,74.6971627 69.810642,74.8150863 69.6577897,74.8150863 L67.173993,74.8214286 C67.0282071,74.8214286 66.9908094,74.6756635 67.0017895,74.5994485 C67.0416877,73.9691971 67.2184572,73.1183631 67.6255924,72.5451923 C68.0533834,71.9606269 68.4604099,71.6776963 69.0333345,71.41777 C70.7138408,70.658093 75.9593079,70 82.1526553,70 L82.1572213,70 Z" id="path-2"></path>
    </defs>
    <g id="UI" stroke="none" stroke-width="1" fill="none" fill-rule="evenodd">
        <g id="画板" transform="translate(-67.000000, -70.000000)" fill-rule="nonzero">
            <g id="nav_aiqiyivip">
                <use fill="#E68B31" xlink:href="#path-2"></use>
                <use fill="url(#linearGradient-1)" xlink:href="#path-2"></use>
            </g>
        </g>
    </g>
</svg>